<svg width="138" height="20" viewBox="0 0 138 20" fill="none" xmlns="http://www.w3.org/2000/svg">
<path d="M44.845 4.95C45.735 4.95 46.505 5.12 47.155 5.46C47.805 5.79 48.355 6.28 48.805 6.93L47.725 7.965C47.345 7.385 46.915 6.97 46.435 6.72C45.965 6.46 45.405 6.33 44.755 6.33C44.025 6.33 43.495 6.47 43.165 6.75C42.835 7.03 42.67 7.37 42.67 7.77C42.67 8.08 42.775 8.35 42.985 8.58C43.205 8.81 43.61 8.99 44.2 9.12L46.21 9.57C47.16 9.79 47.835 10.115 48.235 10.545C48.645 10.965 48.85 11.505 48.85 12.165C48.85 12.775 48.685 13.305 48.355 13.755C48.025 14.195 47.565 14.54 46.975 14.79C46.385 15.03 45.7 15.15 44.92 15.15C43.87 15.15 42.975 14.955 42.235 14.565C41.495 14.165 40.925 13.67 40.525 13.08L41.635 11.97C41.945 12.5 42.38 12.935 42.94 13.275C43.51 13.605 44.185 13.77 44.965 13.77C45.655 13.77 46.195 13.65 46.585 13.41C46.985 13.16 47.185 12.805 47.185 12.345C47.185 12.065 47.085 11.815 46.885 11.595C46.695 11.365 46.335 11.19 45.805 11.07L43.63 10.575C42.73 10.385 42.065 10.07 41.635 9.63C41.205 9.19 40.99 8.64 40.99 7.98C40.99 7.42 41.145 6.91 41.455 6.45C41.765 5.99 42.205 5.625 42.775 5.355C43.355 5.085 44.045 4.95 44.845 4.95ZM54.169 15.15C53.419 15.15 52.759 14.995 52.189 14.685C51.629 14.375 51.189 13.93 50.869 13.35C50.549 12.76 50.389 12.06 50.389 11.25C50.389 10.44 50.544 9.745 50.854 9.165C51.174 8.575 51.609 8.125 52.159 7.815C52.719 7.505 53.359 7.35 54.079 7.35C54.809 7.35 55.429 7.5 55.939 7.8C56.449 8.1 56.839 8.51 57.109 9.03C57.379 9.55 57.514 10.14 57.514 10.8C57.514 10.99 57.509 11.165 57.499 11.325C57.489 11.485 57.474 11.62 57.454 11.73H51.964C52.034 12.43 52.259 12.965 52.639 13.335C53.029 13.695 53.529 13.875 54.139 13.875C54.639 13.875 55.044 13.78 55.354 13.59C55.664 13.4 55.909 13.135 56.089 12.795L57.364 13.395C57.104 13.945 56.689 14.375 56.119 14.685C55.559 14.995 54.909 15.15 54.169 15.15ZM54.049 8.625C53.499 8.625 53.044 8.785 52.684 9.105C52.334 9.425 52.109 9.89 52.009 10.5H55.954C55.914 9.9 55.724 9.44 55.384 9.12C55.044 8.79 54.599 8.625 54.049 8.625ZM59.5409 15V7.5H60.9659L61.0409 8.79C61.2909 8.29 61.6359 7.925 62.0759 7.695C62.5259 7.465 63.0259 7.35 63.5759 7.35C64.1059 7.35 64.5809 7.455 65.0009 7.665C65.4309 7.865 65.7709 8.175 66.0209 8.595C66.2709 9.005 66.3959 9.52 66.3959 10.14V15H64.7909V10.635C64.7909 9.895 64.6359 9.385 64.3259 9.105C64.0259 8.815 63.6459 8.67 63.1859 8.67C62.8559 8.67 62.5359 8.745 62.2259 8.895C61.9159 9.045 61.6559 9.295 61.4459 9.645C61.2459 9.985 61.1459 10.44 61.1459 11.01V15H59.5409ZM73.5101 7.5V8.76H70.9301V12.75C70.9301 13.11 71.0301 13.38 71.2301 13.56C71.4301 13.73 71.6901 13.815 72.0101 13.815C72.2901 13.815 72.5251 13.775 72.7151 13.695C72.9151 13.605 73.1001 13.485 73.2701 13.335L73.6301 14.505C73.4001 14.705 73.1151 14.865 72.7751 14.985C72.4451 15.095 72.0751 15.15 71.6651 15.15C71.0051 15.15 70.4501 14.99 70.0001 14.67C69.5501 14.34 69.3251 13.79 69.3251 13.02V8.76H67.8851V7.5H69.3251V5.745L70.9301 5.295V7.5H73.5101ZM75.9075 6.24C75.5575 6.24 75.2875 6.155 75.0975 5.985C74.9175 5.805 74.8275 5.555 74.8275 5.235C74.8275 4.915 74.9175 4.67 75.0975 4.5C75.2875 4.33 75.5575 4.245 75.9075 4.245C76.2475 4.245 76.5075 4.33 76.6875 4.5C76.8775 4.67 76.9725 4.915 76.9725 5.235C76.9725 5.555 76.8775 5.805 76.6875 5.985C76.5075 6.155 76.2475 6.24 75.9075 6.24ZM76.7025 7.5V15H75.0975V7.5H76.7025ZM79.2138 15V7.5H80.6388L80.7138 8.76C80.9738 8.28 81.3188 7.925 81.7488 7.695C82.1888 7.465 82.6538 7.35 83.1438 7.35C83.6838 7.35 84.1788 7.475 84.6288 7.725C85.0888 7.965 85.4338 8.33 85.6638 8.82C85.8238 8.49 86.0438 8.215 86.3238 7.995C86.6038 7.775 86.9138 7.615 87.2538 7.515C87.5938 7.405 87.9288 7.35 88.2588 7.35C88.7388 7.35 89.1888 7.45 89.6088 7.65C90.0288 7.85 90.3688 8.155 90.6288 8.565C90.8888 8.975 91.0188 9.5 91.0188 10.14V15H89.4138V10.395C89.4138 9.775 89.2638 9.335 88.9638 9.075C88.6738 8.805 88.3088 8.67 87.8688 8.67C87.3488 8.67 86.8938 8.865 86.5038 9.255C86.1138 9.635 85.9188 10.19 85.9188 10.92V15H84.3138V10.395C84.3138 9.775 84.1638 9.335 83.8638 9.075C83.5738 8.805 83.2088 8.67 82.7688 8.67C82.4688 8.67 82.1688 8.75 81.8688 8.91C81.5688 9.07 81.3188 9.32 81.1188 9.66C80.9188 10 80.8188 10.45 80.8188 11.01V15H79.2138ZM96.752 15.15C96.002 15.15 95.342 14.995 94.772 14.685C94.212 14.375 93.772 13.93 93.452 13.35C93.132 12.76 92.972 12.06 92.972 11.25C92.972 10.44 93.127 9.745 93.437 9.165C93.757 8.575 94.192 8.125 94.742 7.815C95.302 7.505 95.942 7.35 96.662 7.35C97.392 7.35 98.012 7.5 98.522 7.8C99.032 8.1 99.422 8.51 99.692 9.03C99.962 9.55 100.097 10.14 100.097 10.8C100.097 10.99 100.092 11.165 100.082 11.325C100.072 11.485 100.057 11.62 100.037 11.73H94.547C94.617 12.43 94.842 12.965 95.222 13.335C95.612 13.695 96.112 13.875 96.722 13.875C97.222 13.875 97.627 13.78 97.937 13.59C98.247 13.4 98.492 13.135 98.672 12.795L99.947 13.395C99.687 13.945 99.272 14.375 98.702 14.685C98.142 14.995 97.492 15.15 96.752 15.15ZM96.632 8.625C96.082 8.625 95.627 8.785 95.267 9.105C94.917 9.425 94.692 9.89 94.592 10.5H98.537C98.497 9.9 98.307 9.44 97.967 9.12C97.627 8.79 97.182 8.625 96.632 8.625ZM102.124 15V7.5H103.549L103.624 8.79C103.874 8.29 104.219 7.925 104.659 7.695C105.109 7.465 105.609 7.35 106.159 7.35C106.689 7.35 107.164 7.455 107.584 7.665C108.014 7.865 108.354 8.175 108.604 8.595C108.854 9.005 108.979 9.52 108.979 10.14V15H107.374V10.635C107.374 9.895 107.219 9.385 106.909 9.105C106.609 8.815 106.229 8.67 105.769 8.67C105.439 8.67 105.119 8.745 104.809 8.895C104.499 9.045 104.239 9.295 104.029 9.645C103.829 9.985 103.729 10.44 103.729 11.01V15H102.124Z" fill="#0066FF"/>
<path fill-rule="evenodd" clip-rule="evenodd" d="M24.6357 1.94159C27.9257 5.66779 31.9993 11.4925 29.0246 16.8246C26.784 20.843 21.9514 21.0725 19.1456 17.3704C18.1637 16.0736 15.3826 10.3793 13.6464 11.4104C11.935 12.4247 9.90155 16.1654 6.19044 18.1239C4.90686 18.8024 1.26106 20.0316 0 18.4209C0.497667 18.0828 0.168892 18.2567 0.990831 18.0466C5.64098 16.8609 7.14074 14.1489 9.91957 10.2416C13.5946 5.07614 17.0648 7.17469 20.4674 11.3138C21.1768 12.1784 23.0886 15.6848 24.2506 14.4556C26.0994 12.4996 21.5866 7.77841 20.5395 6.74484C19.3032 5.53014 19.2176 3.47264 20.3481 2.14686C21.4785 0.821079 23.3971 0.726898 24.6357 1.94159Z" fill="#0066FF"/>
<path fill-rule="evenodd" clip-rule="evenodd" d="M31.6435 16.9478C33.0194 9.85041 31.3508 7.02739 26.9483 1.92953C26.9483 1.92953 25.3112 -0.00722444 25.962 2.02744e-05L26.0251 0.0362438C27.6352 0.613406 27.6487 0.362256 29.5898 1.70736C35.3096 5.67746 36.7418 10.913 36.2261 17.9089C35.9784 19.2661 34.7511 20.15 33.4856 19.8843C32.22 19.6187 31.3958 18.305 31.6435 16.9478Z" fill="#94E0FF"/>
<path fill-rule="evenodd" clip-rule="evenodd" d="M15.3601 14.5474C16.0897 15.3298 15.8961 16.8053 14.9278 17.8413C13.9594 18.8798 12.5835 19.0874 11.8539 18.305C11.1243 17.5226 11.318 16.0471 12.2863 15.0087C13.2546 13.9702 14.6305 13.765 15.3601 14.5474Z" fill="#94E0FF"/>
</svg>
